<?xml version="1.0" encoding="UTF-8"?>
<svg id="Layer_2" data-name="Layer 2" xmlns="http://www.w3.org/2000/svg" width="844.54" height="258.74" viewBox="0 0 844.54 258.74">
  <g id="Word">
    <g>
      <g>
        <path d="M294.4,205.18H0v53.57h352.29c-23.72-12.28-43.79-30.82-57.89-53.57Z"/>
        <path d="M545.85,205.18c-14.01,22.6-33.96,41.22-57.82,53.57h356.51v-53.57h-298.69Z"/>
      </g>
      <path id="V" d="M0,3.31h54.7l24.93,85.48c4.58,15.52,8.9,35.36,8.9,35.36h.51s4.58-19.84,8.9-35.36L122.37,3.31h53.93l-58.51,181.9h-59.53L0,3.31Z"/>
      <path id="S" d="M682.23,127.21h54.44c1.78,14.5,12.98,21.37,30.53,21.37,10.43,0,23.15-4.07,23.15-15.01s-12.21-13.74-34.6-19.33c-30.53-7.63-67.42-18.06-67.42-56.73,0-41.72,34.09-57.5,75.05-57.5,37.65,0,72.25,15.77,73.02,55.46h-52.66c-1.53-9.92-8.65-16.28-23.15-16.28-11.7,0-19.84,5.34-19.84,12.72,0,10.69,15.52,12.21,42.74,18.83,30.53,7.38,61.06,19.33,61.06,58.01s-35.36,60.8-78.36,60.8c-47.32,0-83.19-20.35-83.96-62.33Z"/>
      <g id="E">
        <path d="M295.61,46.77s0,0,0,0"/>
        <path d="M234.76,139.95l-.18-28.4,37.75-.24c1.55-13.86,5.24-27.46,10.42-39.87l-48.42.3-.15-24.59,61.43-.39c7.56-11.51,16.21-22.12,26.6-31.09l-.08-12.18-141.22.89,1.14,181.27,100.91-.63c-6.01-14.18-9.76-29.28-11.06-45.31"/>
      </g>
      <path id="B" d="M612.1,182.65c18.64,0,32.75-3.78,43.58-11.34,12.85-9.07,20.66-23.68,20.66-43.08,0-20.41-11.34-37.03-30.99-43.33v-.76c15.12-6.55,22.42-17.38,22.42-34.51,0-14.86-6.3-27.21-17.13-35.52-9.57-7.31-22.67-11.59-40.31-11.59h-93.21v11.82c30.59,27.06,49.85,66.34,49.85,110.05,0,20.51-3.24,40.05-10.9,57.81M568.76,43.34h32.5c10.08,0,17.13,5.54,17.13,14.86s-6.8,14.36-16.88,14.36h-32.75v-29.22ZM606.3,141.33h-37.54v-35.02h37.29c10.83,0,19.4,5.79,19.4,17.38,0,10.83-7.81,17.63-19.15,17.63Z"/>
    </g>
  </g>
</svg>