<?xml version="1.0" encoding="UTF-8"?>
<svg id="Layer_2" data-name="Layer 2" xmlns="http://www.w3.org/2000/svg" width="297.67" height="297.67" viewBox="0 0 297.67 297.67">
  <g id="Word">
    <g id="Spin-Group">
      <circle cx="148.83" cy="148.83" r="147.83" style="fill: none; stroke: #000; stroke-miterlimit: 10; stroke-width: 2px;"/>
      <path d="M60.98,30.96c-.08-1.37.97-2.54,2.34-2.62l87.7-4.93c37.09-2.08,69.54,13.17,71.62,50.25,1.17,20.83-8.67,36.16-27.24,45.87l.04.76c15.05,4.76,23.24,14.49,27.08,28.55,6.05,21.57,3.46,47.97,10.16,49.37l.16,2.79-52.33,2.94c-5.28-3.27-4.5-25.74-9.23-41.78-4.09-13.78-10.58-20.55-26.08-19.68l-24.64,1.38,3.55,63.25-53.09,2.98L60.98,30.96ZM118.45,106.02l28.45-1.6c15.24-.86,23.25-7.93,22.54-20.63-.67-11.94-8.72-19.13-23.96-18.27l-29.21,1.64,2.18,38.86Z"/>
      <path id="B-Cut" d="M296.22,137.32c-2.45-43.64-24.84-81.49-56.9-106.8l9.42,167.6,39.84-2.47c6.65-18.16,8.79-37.85,7.64-58.33Z"/>
      <path d="M15.12,214.06l42.76-2.67-2.83-45.3-53.51,3.35c2.19,15.94,6.79,30.8,13.58,44.62Z"/>
      <path d="M19.98,75.31l26.75-1.67-1.93-30.86c-9.87,9.54-17.91,20.62-24.82,32.53Z"/>
      <path d="M33.83,99.09l-25.51,1.55c-4.47,12.69-7.2,26.51-7.97,40.43l35.96-2.25-2.48-39.73Z"/>
      <path id="Bar-Cut" d="M23.09,226.62c14.1,22.75,34.17,41.29,57.89,53.57h135.74c23.86-12.35,43.81-30.97,57.82-53.57H23.09Z"/>
    </g>
  </g>
</svg>