<?xml version="1.0" encoding="UTF-8"?>
<svg id="Layer_2" data-name="Layer 2" xmlns="http://www.w3.org/2000/svg" width="844.54" height="297.67" viewBox="0 0 844.54 297.67">
  <g id="Word">
    <g id="Spin-Group">
      <circle cx="420.14" cy="148.83" r="147.83" style="fill: none; stroke: #000; stroke-miterlimit: 10; stroke-width: 2px;"/>
      <path d="M332.28,30.96c-.08-1.37.97-2.54,2.34-2.62l87.7-4.93c37.09-2.08,69.54,13.17,71.62,50.25,1.17,20.83-8.67,36.16-27.24,45.87l.04.76c15.05,4.76,23.24,14.49,27.08,28.55,6.05,21.57,3.46,47.97,10.16,49.37l.16,2.79-52.33,2.94c-5.28-3.27-4.5-25.74-9.23-41.78-4.09-13.78-10.58-20.55-26.08-19.68l-24.64,1.38,3.55,63.25-53.09,2.98-10.07-179.14ZM389.75,106.02l28.45-1.6c15.24-.86,23.25-7.93,22.54-20.63-.67-11.94-8.72-19.13-23.96-18.27l-29.21,1.64,2.18,38.86Z"/>
      <path id="B-Cut" d="M567.53,137.32c-2.45-43.64-24.84-81.49-56.9-106.8l9.42,167.6,39.84-2.47c6.65-18.16,8.79-37.85,7.64-58.33Z"/>
      <path d="M286.42,214.06l42.76-2.67-2.83-45.3-53.51,3.35c2.19,15.94,6.79,30.8,13.58,44.62Z"/>
      <path d="M291.28,75.31l26.75-1.67-1.93-30.86c-9.87,9.54-17.91,20.62-24.82,32.53Z"/>
      <path d="M305.14,99.09l-25.51,1.55c-4.47,12.69-7.2,26.51-7.97,40.43l35.96-2.25-2.48-39.73Z"/>
      <path id="Bar-Cut" d="M294.4,226.62c14.1,22.75,34.17,41.29,57.89,53.57h135.74c23.86-12.35,43.81-30.97,57.82-53.57h-251.45Z"/>
    </g>
    <g>
      <g>
        <path d="M294.4,226.62H0v53.57h352.29c-23.72-12.28-43.79-30.82-57.89-53.57Z"/>
        <path d="M545.85,226.62c-14.01,22.6-33.96,41.22-57.82,53.57h356.51v-53.57h-298.69Z"/>
      </g>
      <path id="V" d="M0,24.75h54.7l24.93,85.48c4.58,15.52,8.9,35.36,8.9,35.36h.51s4.58-19.84,8.9-35.36l24.42-85.48h53.93l-58.51,181.9h-59.53L0,24.75Z"/>
      <path id="S" d="M682.23,148.65h54.44c1.78,14.5,12.98,21.37,30.53,21.37,10.43,0,23.15-4.07,23.15-15.01s-12.21-13.74-34.6-19.33c-30.53-7.63-67.42-18.06-67.42-56.73,0-41.72,34.09-57.5,75.05-57.5,37.65,0,72.25,15.77,73.02,55.46h-52.66c-1.53-9.92-8.65-16.28-23.15-16.28-11.7,0-19.84,5.34-19.84,12.72,0,10.69,15.52,12.21,42.74,18.83,30.53,7.38,61.06,19.33,61.06,58.01s-35.36,60.8-78.36,60.8c-47.32,0-83.19-20.35-83.96-62.33Z"/>
      <g id="E">
        <path d="M295.61,68.21s0,0,0,0"/>
        <path d="M234.76,161.39l-.18-28.4,37.75-.24c1.55-13.86,5.24-27.46,10.42-39.87l-48.42.3-.15-24.59,61.43-.39c7.56-11.51,16.21-22.12,26.6-31.09l-.08-12.18-141.22.89,1.14,181.27,100.91-.63c-6.01-14.18-9.76-29.28-11.06-45.31"/>
      </g>
      <path id="B" d="M612.1,204.09c18.64,0,32.75-3.78,43.58-11.34,12.85-9.07,20.66-23.68,20.66-43.08,0-20.41-11.34-37.03-30.99-43.33v-.76c15.12-6.55,22.42-17.38,22.42-34.51,0-14.86-6.3-27.21-17.13-35.52-9.57-7.31-22.67-11.59-40.31-11.59h-93.21v11.82c30.59,27.06,49.85,66.34,49.85,110.05,0,20.51-3.24,40.05-10.9,57.81M568.76,64.78h32.5c10.08,0,17.13,5.54,17.13,14.86s-6.8,14.36-16.88,14.36h-32.75v-29.22ZM606.3,162.78h-37.54v-35.02h37.29c10.83,0,19.4,5.79,19.4,17.38,0,10.83-7.81,17.63-19.15,17.63Z"/>
    </g>
  </g>
</svg>